<?xml version="1.0" encoding="utf-8"?>
<!-- Generator: Adobe Illustrator 28.0.0, SVG Export Plug-In . SVG Version: 6.00 Build 0)  -->
<svg version="1.1" id="Layer_1" xmlns="http://www.w3.org/2000/svg" xmlns:xlink="http://www.w3.org/1999/xlink" x="0px" y="0px"
	 viewBox="0 0 207 207" style="enable-background:new 0 0 207 207;" xml:space="preserve">
<style type="text/css">
	.st0{fill:#032D70;}
	.st1{clip-path:url(#SVGID_00000042696426845519910130000000175115912016900014_);fill:#26E8F7;}
</style>
<g>
	<g>
		<g>
			<g>
				<path class="st0" d="M103.5,206.5c-56.8,0-103-46.2-103-103s46.2-103,103-103s103,46.2,103,103S160.3,206.5,103.5,206.5z
					 M103.5,11C52.5,11,11,52.5,11,103.5c0,51,41.5,92.5,92.5,92.5c51,0,92.5-41.5,92.5-92.5C196,52.5,154.5,11,103.5,11z"/>
			</g>
		</g>
		<g>
			<path class="st0" d="M165.6,69.2h-26.4c-12.6,0-22.8,9-22.8,20.2s10.2,20.2,22.8,20.2c12.6,0,22.8-9,22.8-20.2
				c0-3.5-1.1-6.7-2.9-9.6h6.5V69.2z M151.5,89.4c0,5.3-5.5,9.6-12.2,9.6c-6.7,0-12.2-4.3-12.2-9.6s5.5-9.6,12.2-9.6
				C146,79.8,151.5,84.1,151.5,89.4z"/>
		</g>
		<g>
			<g>
				<path class="st0" d="M139.3,139.3c-12.6,0-22.8-9-22.8-20.2h10.6c0,5.3,5.5,9.6,12.2,9.6c6.7,0,12.2-4.3,12.2-9.6H162
					C162,130.3,151.8,139.3,139.3,139.3z"/>
			</g>
		</g>
		<g>
			<g>
				<path class="st0" d="M87.4,139.3c-12.8,0-23.2-9.2-23.2-20.6h10.6c0,5.5,5.7,10,12.7,10c7,0,12.7-4.5,12.7-10
					c0-5.5-5.7-10-12.7-10c-12.8,0-23.2-9.2-23.2-20.6s10.4-20.6,23.2-20.6s23.2,9.2,23.2,20.6H100c0-5.5-5.7-10-12.7-10
					c-7,0-12.7,4.5-12.7,10s5.7,10,12.7,10c12.8,0,23.2,9.2,23.2,20.6S100.2,139.3,87.4,139.3z"/>
			</g>
		</g>
		<g>
			<g>
				<rect x="45" y="99.6" class="st0" width="10.6" height="38.3"/>
			</g>
			<g>
				<rect x="45" y="69.2" class="st0" width="10.6" height="19.1"/>
			</g>
		</g>
		<g>
			<defs>
				<path id="SVGID_1_" d="M87.4,139.3c-12.8,0-23.2-9.2-23.2-20.6h10.6c0,5.5,5.7,10,12.7,10c7,0,12.7-4.5,12.7-10
					c0-5.5-5.7-10-12.7-10c-12.8,0-23.2-9.2-23.2-20.6s10.4-20.6,23.2-20.6s23.2,9.2,23.2,20.6H100c0-5.5-5.7-10-12.7-10
					c-7,0-12.7,4.5-12.7,10s5.7,10,12.7,10c12.8,0,23.2,9.2,23.2,20.6S100.2,139.3,87.4,139.3z"/>
			</defs>
			<clipPath id="SVGID_00000069380633757271377330000001373858809516869041_">
				<use xlink:href="#SVGID_1_"  style="overflow:visible;"/>
			</clipPath>
			
				<rect x="75.3" y="98.2" transform="matrix(0.7071 -0.7071 0.7071 0.7071 -47.6033 92.0807)" style="clip-path:url(#SVGID_00000069380633757271377330000001373858809516869041_);fill:#26E8F7;" width="24" height="10.6"/>
		</g>
	</g>
	<g>
		<path class="st0" d="M180,182.4h-1.7v-0.8h4.4v0.8H181v3.6h-1V182.4z M183.8,181.6h1.1l1.6,2l1.6-2h1.1v4.3h-1v-3.1l-1.7,2.1h-0.1
			l-1.7-2.1v3.1h-1V181.6z"/>
	</g>
</g>
</svg>
